<?xml version="1.0" encoding="UTF-8"?>
<svg id="uuid-ad7a3fe2-2003-442a-bc84-0155235fc91a" data-name="Layer 1" xmlns="http://www.w3.org/2000/svg" viewBox="0 0 483.75 464.98">
  <defs>
    <style>
      .uuid-046697c2-5150-4fdb-bcc0-65fa150d0aaf {
        fill: #372006;
      }

      .uuid-046697c2-5150-4fdb-bcc0-65fa150d0aaf, .uuid-ed0c84ef-591b-491f-a087-7807dc3371f2, .uuid-01af1601-7101-4a22-8e93-a6baa9692d43, .uuid-e6a46dd6-8cc1-4d22-b60a-04fc28a010af, .uuid-340a4e19-d00a-4614-bc61-7ae4acc248a8, .uuid-bb21ff68-a881-4262-b6e0-463eaec002ef, .uuid-12e4ff63-f820-4f9a-8632-e1dbcd0d424e {
        stroke-width: 0px;
      }

      .uuid-ed0c84ef-591b-491f-a087-7807dc3371f2 {
        fill: #b85200;
      }

      .uuid-01af1601-7101-4a22-8e93-a6baa9692d43 {
        fill: #8e5c10;
      }

      .uuid-e6a46dd6-8cc1-4d22-b60a-04fc28a010af {
        fill: #feab03;
      }

      .uuid-340a4e19-d00a-4614-bc61-7ae4acc248a8 {
        fill: #fde8c4;
      }

      .uuid-bb21ff68-a881-4262-b6e0-463eaec002ef {
        fill: #ee7901;
      }

      .uuid-12e4ff63-f820-4f9a-8632-e1dbcd0d424e {
        fill: #fefefd;
      }
    </style>
  </defs>
  <path class="uuid-12e4ff63-f820-4f9a-8632-e1dbcd0d424e" d="m23.08,83.83c-1.02.33-1.56,1.09-1.87,2.06-10.19,10.25-15.87,22.6-17.2,36.97-2.62.08-3.78,1.36-3.88,4.05-.23,6.32-.22,12.61.53,18.89.48,3.98,2.02,7.16,5.84,9.21,3.57,1.91,4.36,5.68,4.74,9.36.29,2.8.32,5.62.38,8.44.58,26.48,6.3,50.99,26.74,69.87-.62,28.11-1.37,56.22-1.81,84.34-.19,11.86,2.14,22.76,12.9,30.26,15.43,10.74,30.68,21.71,46.6,31.73,33.68,21.22,69.11,39.26,104.41,57.53,7.68,3.97,15.83,7.12,23.23,11.53,15.77,9.4,31.65,8.32,47.92,1.96,26.85-10.5,51.98-24.59,77.78-37.27,11.94-5.87,23.79-11.92,35.53-18.16,18.06-9.6,36.47-18.67,52.55-31.54,11.31-9.04,17.18-20.52,14.81-35.42-.39-2.45-.26-4.98-.3-7.48-.49-29.44-1.44-58.87-3.15-88.27.74-8.32-3.29-17.94,6.47-23.8,1.53.43,2.39,1.71,3.45,2.73,4.87,4.68,10.3,3.7,13.08-2.49,1.72-3.84,1.54-7.7-.64-11.38-1.17-1.98-2.34-3.96-3.51-5.95,13.6-21.86,16.78-46.05,15.9-71.14-.71-11.29-2.05-22.4-8.86-31.99-.73-1.29-1.33-2.68-2.22-3.85-19.06-25.02-43.05-44.32-70.42-59.39C361.57,12.3,317.67,2.12,271.69.32c-42.02-1.65-83.39,3.12-123.74,14.98-42.17,12.4-81.32,31.01-115.42,59.25-3.39,2.81-7.38,5.15-9.51,9.3h.06Z"/>
  <path class="uuid-e6a46dd6-8cc1-4d22-b60a-04fc28a010af" d="m23.02,83.85c2.14-4.15,6.12-6.49,9.51-9.31,34.1-28.24,73.25-46.85,115.42-59.25C188.3,3.43,229.67-1.33,271.69.32c45.98,1.81,89.88,11.99,130.42,34.32,27.36,15.08,51.35,34.37,70.42,59.39.89,1.17,1.49,2.56,2.22,3.85-1.3.21-2.7.19-3.88.68-24.69,10.21-49.14,21.01-73.72,31.5-31.77,13.56-63.69,26.75-95.74,39.62-3.16,1.27-5.37,1.01-7.87-1.64-9.24-9.79-18.86-19.21-29.72-27.25-21.04-15.58-43.49-28.63-67.62-38.92-20.33-8.67-40.75-16.89-62.17-22.52-20.87-5.48-41.82-9.53-63.59-8.56-9.56.43-18.71,2.06-27.82,4.78-6.87,2.05-12.9,5.92-19.6,8.27Z"/>
  <path class="uuid-bb21ff68-a881-4262-b6e0-463eaec002ef" d="m448.86,241.91c1.72,29.4,2.67,58.83,3.15,88.27.04,2.5-.09,5.03.3,7.48,2.37,14.89-3.5,26.38-14.81,35.42-16.08,12.86-34.49,21.94-52.55,31.54-11.74,6.24-23.6,12.29-35.53,18.16-25.8,12.68-50.93,26.77-77.78,37.27-16.27,6.37-32.16,7.45-47.92-1.96-7.4-4.41-15.55-7.56-23.23-11.53-35.3-18.27-70.73-36.31-104.41-57.53-15.92-10.03-31.17-21-46.6-31.73-10.76-7.49-13.09-18.4-12.9-30.26.44-28.12,1.19-56.23,1.81-84.34,5.98,3.4,11.43,7.72,17.83,10.42-1.46,23.1-1.14,46.23-1.25,69.35-.04,7.91,3,13.79,8.41,18.87,3.27,3.07,6.61,6.12,10.25,8.72,31.06,22.22,64.05,41.09,98.78,56.99,18.89,8.65,37.78,17.31,56.89,25.47,5.91,2.52,10.13.5,11.75-5.66.5-1.91.71-3.94.72-5.91.1-33.96.15-67.92.2-101.88,8.26.29,16.09-1.72,23.77-4.5,2,.49,3.88.14,5.87-.35,25.23-6.23,48.78-17.13,72.77-26.67,31.58-12.56,62.76-26.14,94.02-39.49,3.66-1.56,8.23-1.98,10.48-6.13Z"/>
  <path class="uuid-046697c2-5150-4fdb-bcc0-65fa150d0aaf" d="m56.2,253.11c-6.39-2.7-11.84-7.02-17.83-10.42-20.44-18.88-26.16-43.39-26.74-69.87-.06-2.82-.09-5.64-.38-8.44-.39-3.69-1.17-7.45-4.74-9.36-3.83-2.04-5.37-5.23-5.84-9.21-.75-6.28-.76-12.58-.53-18.89.1-2.69,1.26-3.97,3.88-4.05,5.91,1.81,11.82,3.62,17.73,5.43,2.29.95,4.54,2,6.86,2.84,24.2,8.73,49.39,14.63,72.99,24.96,24.6,10.76,50.13,18.37,76.04,25.08,28.28,7.33,56.59,14.62,83.71,25.71,7.78,3.18,15.45,6.64,23.17,9.97,10.2,5.42,20.59,7.7,31.49,1.98,2.22-.67,4.49-1.21,6.65-2.03,27.18-10.3,54.33-20.69,81.52-30.97,12.86-4.86,25.91-6.96,39.45-2.63,10.09,3.23,17.25,10.25,24.08,17.81,1.17,1.98,2.33,3.97,3.51,5.95,2.18,3.68,2.37,7.54.64,11.38-2.78,6.19-8.21,7.17-13.08,2.49-1.06-1.02-1.92-2.3-3.45-2.73-9.74-11.61-29.35-16.33-44.14-10.24-7.66,3.16-14.96,7.18-22.57,10.5-24.77,10.8-49.09,22.65-74.64,31.6-4.75.59-9.49,1.42-14.27,1.71-4.66.28-6.95,2.54-7.34,7.04-.62,7.14-2.17,14.11-3.7,21.09-4.26,13.82-10.44,26.38-22.96,34.74-7.68,2.78-15.51,4.79-23.77,4.5-10.65-1.23-21.03-3.84-30.69-8.33-30.26-14.09-48.24-37.72-53.4-70.84-1.45-9.32-1.39-18.96-5.8-27.65-2.86-5.62-6.87-10.43-13.64-10-6.81.43-8.79,6.44-10.31,11.95-1.63,5.91-2.42,12.06-4.15,17.93-5.34,18.09-18.51,27.63-37.31,27.8-10.73.1-20.59-3.2-30.44-6.8Zm123.82-26.51c0,1.49-.05,2.99,0,4.48.23,5.89,3.73,10.58,8.31,10.76,6.44.26,5.72-5.09,6.81-9.02,1.29-4.65,3.03-8.72,8.89-9.19,3.02-.24,6.07-1.55,6.86-4.89.87-3.66.44-7.35-2.6-10.1-4.47-4.04-9.81-4.63-15.35-3.13-8.31,2.24-12.92,9.93-12.92,21.09ZM26.91,174.55c.24,2.46.22,4.98.78,7.37.98,4.18,3.55,7.87,7.94,7.62,4.33-.25,4.21-4.62,4.62-8.15.53-4.52,2.39-8,7.47-9.3,5.14-1.32,6.77-4.99,5-9.97-1.43-4.01-4.06-6.77-8.57-7.21-5.88-.58-10.85.94-14.08,6.28-2.48,4.11-3.4,8.59-3.16,13.37Z"/>
  <path class="uuid-bb21ff68-a881-4262-b6e0-463eaec002ef" d="m316.01,218.84c-10.9,5.72-21.29,3.44-31.49-1.98-2.15-10.33-7.22-19.23-13.51-27.5-17.4-22.87-40.43-38.85-65.18-52.53-28.62-15.82-58.77-28.06-90.33-36.69-19.29-5.28-38.79-9.62-59.02-7.16-17.32,2.1-35.23,10.41-34.73,35.32-5.91-1.81-11.82-3.62-17.73-5.43,1.33-14.37,7-26.72,17.2-36.97,1.35-.03,1.97-.71,1.87-2.06,0,0-.06.01-.06.01,6.7-2.36,12.74-6.22,19.6-8.27,9.11-2.72,18.25-4.35,27.82-4.78,21.77-.98,42.73,3.08,63.59,8.56,21.42,5.63,41.85,13.85,62.17,22.52,24.13,10.29,46.58,23.34,67.62,38.92,10.87,8.05,20.48,17.46,29.72,27.25,2.5,2.65,4.71,2.91,7.87,1.64,32.05-12.87,63.96-26.06,95.74-39.62,24.58-10.49,49.02-21.29,73.72-31.5,1.18-.49,2.58-.46,3.88-.68,6.81,9.6,8.15,20.71,8.86,31.99-.66.09-1.37.05-1.97.3-19.28,8.09-38.59,16.1-57.8,24.36-18.76,8.07-37.44,16.34-56.11,24.62-16.68,7.4-33.28,14.98-49.97,22.35-2.93,1.29-3.97,2.65-2.91,6.01,1.13,3.6,1.66,7.46,1.17,11.32Z"/>
  <path class="uuid-ed0c84ef-591b-491f-a087-7807dc3371f2" d="m313.98,249.97c25.55-8.96,49.88-20.8,74.64-31.6,7.6-3.32,14.9-7.34,22.57-10.5,14.79-6.09,34.4-1.37,44.14,10.24-9.77,5.86-5.73,15.48-6.47,23.8-2.24,4.15-6.81,4.56-10.48,6.13-31.26,13.35-62.44,26.93-94.02,39.49-23.99,9.54-47.54,20.44-72.77,26.67-1.99.49-3.87.84-5.87.35,12.52-8.36,18.7-20.92,22.96-34.74.5-.04,1.14.11,1.47-.15,10.34-7.97,20.14-16.39,23.84-29.69Z"/>
  <path class="uuid-ed0c84ef-591b-491f-a087-7807dc3371f2" d="m316.01,218.84c.49-3.86-.04-7.72-1.17-11.32-1.06-3.37-.02-4.72,2.91-6.01,16.69-7.37,33.29-14.95,49.97-22.35,18.67-8.28,37.35-16.55,56.11-24.62,19.21-8.26,38.52-16.27,57.8-24.36.59-.25,1.31-.21,1.97-.3.88,25.09-2.3,49.28-15.9,71.14-6.82-7.56-13.99-14.58-24.08-17.81-13.54-4.33-26.59-2.23-39.45,2.63-27.19,10.28-54.34,20.66-81.52,30.97-2.16.82-4.43,1.36-6.65,2.03Z"/>
  <path class="uuid-e6a46dd6-8cc1-4d22-b60a-04fc28a010af" d="m23.08,83.83c.1,1.35-.52,2.03-1.87,2.06.32-.97.85-1.73,1.87-2.06Z"/>
  <path class="uuid-340a4e19-d00a-4614-bc61-7ae4acc248a8" d="m56.2,253.11c9.85,3.6,19.71,6.9,30.44,6.8,18.8-.17,31.97-9.71,37.31-27.8,1.73-5.87,2.52-12.02,4.15-17.93,1.52-5.51,3.51-11.51,10.31-11.95,6.77-.43,10.78,4.37,13.64,10,4.41,8.69,4.35,18.32,5.8,27.65,5.16,33.12,23.14,56.75,53.4,70.84,9.65,4.5,20.04,7.1,30.69,8.33-.06,33.96-.1,67.92-.2,101.88,0,1.98-.22,4.01-.72,5.91-1.62,6.16-5.84,8.19-11.75,5.66-19.11-8.16-38-16.82-56.89-25.47-34.73-15.9-67.72-34.77-98.78-56.99-3.64-2.6-6.98-5.65-10.25-8.72-5.41-5.08-8.45-10.95-8.41-18.87.11-23.13-.21-46.25,1.25-69.35Zm104.9,93.64c12.45-.77,24.7-1.92,35.15-9.53,5.15-3.75,8.07-10.14,6.37-14.11-2.35-5.5-7.55-5.94-12.6-6.19-33.84-1.66-65.69-9.42-93.36-30.17-2.55-1.91-5.42-4.02-8.58-1.6-2.92,2.23-3.24,5.61-2.48,9.08,1.66,7.63,5.43,14.3,9.97,20.46,16.26,22.07,39.07,30.92,65.53,32.06Z"/>
  <path class="uuid-340a4e19-d00a-4614-bc61-7ae4acc248a8" d="m21.75,128.3c-.5-24.92,17.41-33.22,34.73-35.32,20.23-2.45,39.73,1.89,59.02,7.16,31.55,8.63,61.71,20.87,90.33,36.69,24.75,13.68,47.78,29.66,65.18,52.53,6.3,8.28,11.37,17.18,13.51,27.5-7.72-3.33-15.39-6.79-23.17-9.97-27.12-11.09-55.44-18.38-83.71-25.71-25.9-6.71-51.44-14.32-76.04-25.08-23.61-10.33-48.8-16.23-72.99-24.96-2.33-.84-4.58-1.89-6.86-2.84Z"/>
  <path class="uuid-01af1601-7101-4a22-8e93-a6baa9692d43" d="m180.02,226.6c0-11.16,4.61-18.85,12.92-21.09,5.55-1.49,10.88-.91,15.35,3.13,3.05,2.76,3.47,6.44,2.6,10.1-.79,3.33-3.84,4.64-6.86,4.89-5.85.47-7.6,4.54-8.89,9.19-1.09,3.93-.37,9.28-6.81,9.02-4.58-.19-8.08-4.87-8.31-10.76-.06-1.49,0-2.99,0-4.48Z"/>
  <path class="uuid-01af1601-7101-4a22-8e93-a6baa9692d43" d="m26.91,174.55c-.24-4.78.68-9.26,3.16-13.37,3.22-5.34,8.19-6.86,14.08-6.28,4.51.44,7.14,3.2,8.57,7.21,1.77,4.99.14,8.66-5,9.97-5.08,1.3-6.94,4.78-7.47,9.3-.41,3.52-.29,7.9-4.62,8.15-4.39.25-6.96-3.44-7.94-7.62-.56-2.39-.54-4.91-.78-7.37Z"/>
  <path class="uuid-bb21ff68-a881-4262-b6e0-463eaec002ef" d="m313.98,249.97c-3.7,13.3-13.5,21.72-23.84,29.69-.33.25-.97.11-1.47.15,1.53-6.98,3.08-13.95,3.7-21.09.39-4.5,2.68-6.76,7.34-7.04,4.77-.29,9.51-1.12,14.27-1.71Z"/>
  <path class="uuid-046697c2-5150-4fdb-bcc0-65fa150d0aaf" d="m161.1,346.75c-26.46-1.14-49.27-9.99-65.53-32.06-4.54-6.16-8.31-12.83-9.97-20.46-.76-3.47-.44-6.85,2.48-9.08,3.16-2.42,6.02-.31,8.58,1.6,27.67,20.74,59.52,28.5,93.36,30.17,5.06.25,10.25.68,12.6,6.19,1.7,3.98-1.23,10.36-6.37,14.11-10.45,7.61-22.7,8.76-35.15,9.53Z"/>
</svg>